<?xml version="1.0" standalone="no"?><!DOCTYPE svg PUBLIC "-//W3C//DTD SVG 1.1//EN" "http://www.w3.org/Graphics/SVG/1.1/DTD/svg11.dtd"><svg t="1730737533425" class="icon" viewBox="0 0 1024 1024" version="1.1" xmlns="http://www.w3.org/2000/svg" p-id="5661" xmlns:xlink="http://www.w3.org/1999/xlink" width="16" height="16"><path d="M761.301333 165.888c-127.872-92.16-296.192-106.325333-437.674666-36.821333C182.101333 198.570667 90.496 340.394667 85.333333 497.92a604.288 604.288 0 0 0 130.176 14.08c233.557333-0.085333 446.122667-134.826667 545.792-345.941333v-0.170667z" fill="#1BBAEA" p-id="5662"></path><path d="M767.146667 170.325333a611.7248 611.7248 0 0 1-220.757334 251.221334c-9.088 5.802667-18.218667 11.264-27.306666 16.597333A601.1904 601.1904 0 0 0 808.490667 512c43.776 0 87.424-4.693333 130.176-14.08a426.171733 426.171733 0 0 0-171.52-327.594667z" fill="#0091CC" p-id="5663"></path><path d="M262.272 858.069333c127.872 92.202667 296.192 106.410667 437.717333 36.906667 141.482667-69.504 233.130667-211.370667 238.250667-368.896-275.2-60.416-555.605333 77.312-675.968 331.989333z" fill="#1AB346" p-id="5664"></path><path d="M256.597333 853.888a611.328 611.328 0 0 1 220.714667-251.434667c9.130667-5.845333 18.218667-11.264 27.349333-16.554666-128-69.845333-276.906667-91.093333-419.328-59.818667a426.0352 426.0352 0 0 0 171.264 327.722667v0.085333z" fill="#009C45" p-id="5665"></path></svg>