<?xml version="1.0" standalone="no"?><!DOCTYPE svg PUBLIC "-//W3C//DTD SVG 1.1//EN" "http://www.w3.org/Graphics/SVG/1.1/DTD/svg11.dtd"><svg t="1691412941340" class="icon" viewBox="0 0 1024 1024" version="1.1" xmlns="http://www.w3.org/2000/svg" p-id="4696" xmlns:xlink="http://www.w3.org/1999/xlink" width="16" height="16"><path d="M374.42 677.81l0.19-0.24h-0.19l-0.16 0.23 0.16 0.01z" fill="#EA5504" p-id="4697"></path><path d="M380.36 666.49l-2.47-1.24-2.33-1.39-2.21-1.5-2.09-1.63-2-1.76-1.83-1.88-2.6-3.06-0.95-0.78-1-0.48-1.1-0.11-1.09 0.25-1 0.59-1 0.87c-1.19 1.48-2.4 2.95-3.63 4.37l-0.55 0.65-1.71 1.79-1.8 1.73-1.86 1.64-2 1.6-5.24 3.85 1.32-6.15h0.09l0.27-2.45v-1.54l-0.19-1.47-0.15-0.44-0.2-0.41-0.32-0.45-0.42-0.38-0.48-0.28-1.16-0.38-1.3-0.17H329l-1.23 0.08-1.1 0.28-0.94 0.44-0.75 0.64-0.56 0.76-0.36 0.9-0.2 1-0.05 1v53.33l0.05 0.63 0.18 0.64 0.32 0.58 0.44 0.49 0.53 0.37 0.6 0.27 0.65 0.14 0.74 0.06 0.73-0.06 0.68-0.15 0.6-0.27 0.53-0.38 0.41-0.49 0.3-0.57 0.18-0.63 0.06-0.63v-12.88l1.71 0.6c0.45 0.13 0.92 0.24 1.36 0.33a12.9 12.9 0 0 0 2.41 0.19h0.94l0.92-0.12 0.91-0.21 0.89-0.28 0.86-0.41 0.8-0.46 0.74-0.58 0.68-0.67 0.56-0.75 0.48-0.8 0.37-0.86 0.29-0.86 0.21-0.9 0.23-1.91v-1l-0.06-1.18c-0.1-0.78-0.21-1.56-0.35-2.32-0.24-1.09-0.55-2.14-0.84-3.21l-1.22-3.16-2-4.41-0.23-1.43 0.3-3.11 1.89 1.42 0.63 0.28 0.69 0.17h0.71l0.73-0.15 0.72-0.28 0.72-0.39 2.52-1.66 0.26 1.78a7 7 0 0 0 0.37 0.92l0.39 0.52 0.46 0.42 0.56 0.3 0.6 0.19 0.67 0.09h7l-2.05 1.89-0.35 0.58-0.23 0.6-0.1 0.68v0.7l0.11 0.71c0.52 2.1 1 4.24 1.52 6.36s0.85 4.5 1.24 6.75l0.67 4.8 0.16 0.73 0.25 0.67 0.32 0.61 0.45 0.54 0.53 0.43 0.62 0.29 0.7 0.14h0.75l0.68-0.16 2-0.9-0.29 2.1v0.71l0.14 0.68 0.78 1.81h-12.12l2.45-2.27 0.37-0.55 0.24-0.64 0.12-0.7v-0.74c-0.1-0.68-0.22-1.35-0.34-2-0.26-1.13-0.56-2.29-0.86-3.4l-0.73-2.37-0.82-2.38-0.93-2.45-2.16-5-1.21-2.59-0.43-0.64-0.45-0.55-0.52-0.47-0.55-0.34-0.64-0.25-0.67-0.08-0.68 0.08-0.65 0.23-0.62 0.31-0.51 0.45-0.41 0.55-0.24 0.62-0.1 0.64c0.11 2.24 1.55 4.51 2.43 6.6l2 5.11 1.45 4.46 1.12 4.24 0.23 0.71 0.31 0.64 0.37 0.56 2.4 2.24h-9.69l-0.65 0.07-0.61 0.18-0.57 0.27-0.49 0.4-0.39 0.48-0.27 0.57-0.19 0.63-0.08 0.74 0.05 0.71 0.16 0.64 0.25 0.57 0.38 0.51 0.46 0.4 0.55 0.29 0.6 0.18 0.66 0.1h35.49l0.62-0.1 0.57-0.19 0.5-0.3 0.45-0.4 0.34-0.49 0.25-0.55 0.16-0.59 0.11-0.73-0.11-0.76-0.16-0.6-0.25-0.54-0.34-0.5-0.45-0.41-0.51-0.3-0.59-0.19-0.61-0.08H372c0.4-0.73 0.83-1.47 1.17-2.21l0.12-0.27 2-5.68 0.89-2.87 0.82-2.91 0.7-2.94 0.6-3 0.48-3 0.35-3.07v-0.79l-0.06-0.74-0.17-0.7-0.27-0.63-0.43-0.58-0.52-0.45-0.65-0.33-0.72-0.17-1.91-0.15-1.23 1.48a5.61 5.61 0 0 0-0.58 1.27l-0.72 4.12-1.19 6.16-0.65 2.87-2.52 9.38c-0.33-2.64-0.63-5.32-1-7.95-0.25-1.72-0.55-3.43-0.83-5.12l-1-4.58-1.17-4.34-0.25-0.64-2-2.88h13.1l1-1.52 0.24-0.56 0.24-1.36-0.12-1.9 4.13 2.15 2.86 0.19 2.28-2 0.14-2.95-2.09-1.9z m-42 26.77l-0.06 0.59-0.14 0.68a4.41 4.41 0 0 1-0.33 0.64 4 4 0 0 1-0.56 0.58 6.49 6.49 0 0 1-0.78 0.13h-0.19l-2.58-0.43h-0.67l-0.64 0.14-1.57 0.68v-33.6h5.79l-2.57 12.16-0.22 2.24 0.05 1.23a13.3 13.3 0 0 0 0.33 1.77c0.2 0.59 0.44 1.14 0.68 1.69 0.62 1.35 1.24 2.69 1.8 4.08l0.6 1.62 0.81 3.07c0.09 0.53 0.17 1 0.23 1.59zM353 670.72l2.55-2.33 1.44-1.49 1.23-1.42 2.05-2.72c0.16-0.17 0.31-0.36 0.47-0.53l1-1.09 2 1.91 1.25 1.38 1.51 1.42c0.84 0.69 1.69 1.39 2.52 2 1.34 1 2.71 1.92 4.06 2.85zM421.42 682.67l-0.49-0.9-0.64-0.77-0.79-0.64-0.88-0.49-0.99-0.3-1.05-0.1-1.07 0.1-0.97 0.3-0.9 0.5-0.76 0.64-0.65 0.76-0.48 0.91-0.3 0.97-0.1 1.07 0.1 1.05 0.3 0.98 0.48 0.88 0.65 0.78 0.76 0.65 0.9 0.49 0.97 0.29 1.07 0.12 1.05-0.12 0.99-0.29 0.88-0.49 0.79-0.65 0.64-0.78 0.49-0.88 0.3-0.98 0.11-1.05-0.11-1.07-0.3-0.98zM305.74 703.64l-3.55-1.93-3.23-2-2.89-2-2.56-2.09-2.22-2.12-2.7-3.12h18.55l0.58-0.06 0.59-0.2 0.5-0.3 0.43-0.38 0.34-0.5 0.23-0.52 0.15-0.57 0.05-0.59-0.05-0.64-0.14-0.55-0.24-0.54-0.33-0.48-0.44-0.42-0.51-0.31-0.58-0.19-0.59-0.05h-20.75v-5.42h13.74l1-0.11 1-0.31 0.87-0.47 0.78-0.63 0.62-0.78 0.49-0.86 0.3-1 0.11-1v-14l-0.11-1-0.3-1-0.49-0.88-0.62-0.76-0.78-0.65-0.88-0.47-1-0.29-1-0.1h-33.55l-1 0.1-1 0.29-0.89 0.47-0.76 0.65-1.39 1.68-0.81-2.48-0.25-0.5-2.32-1.56h-1l-0.75 0.17-0.72 0.32-0.67 0.51-0.52 0.57-0.42 0.68-0.33 0.78-0.22 0.87-0.65 3.25-0.81 3.08-1 2.91-1.05 2.76-1.29 2.63-1.49 2.47-1.6 2.34-1.82 2.27-0.41 0.64-0.29 0.67-0.18 0.69v0.71l0.09 0.69 0.23 0.68 0.35 0.65 0.57 0.79 2.52 1 3.56-1.89v30.28l0.08 0.73 0.18 0.71 0.28 0.63 0.4 0.57 0.53 0.46 0.62 0.32 0.69 0.2 0.78 0.07 0.75-0.07 0.7-0.2 0.6-0.32 0.55-0.47 0.39-0.57 0.29-0.62 0.18-0.7 0.1-0.73v-3.1l2.23 1.22 0.58 0.13h0.62l0.62-0.12 0.6-0.22 3.3-1.85 3-1.86 2.76-1.91 2.53-1.93 2.27-2 3.79-3.85v16.23l0.08 0.63 0.19 0.63 0.3 0.54 0.4 0.48 0.5 0.38 0.59 0.28 0.65 0.16 0.71 0.06 0.67-0.06 0.62-0.16 0.57-0.28 0.5-0.38 0.39-0.48 0.29-0.55 0.19-0.61 0.09-0.64v-16.71l2.67 2.78 2.38 2.18 2.56 2.12 2.75 2 2.93 2 3.11 1.89 3.47 1.93 2.57 0.13 2.09-2.06 0.47-3-1.55-2z m-30.22-10.78l-2 2-2.35 2-2.68 2-3 2.07-3.39 2.07-4.76 2.78v-17.12l2.19 1.45 0.57 0.19 0.58 0.06h17z m4.13-8.8h-19l-0.7 0.09a3.56 3.56 0 0 0-0.94 0.42l-1.71 1.55v-15.69c0.51-1.3 1-2.62 1.48-4l2.63-7.93v15l0.09 1 0.31 1 0.47 0.87 0.63 0.78 0.76 0.63 0.88 0.48 1 0.3 1 0.11h13.09z m-10.58-12c-0.15-0.05-0.3-0.12-0.47-0.2l-0.22-0.22-0.21-0.34v-9.38l0.09-0.32 0.18-0.24 0.25-0.22 0.31-0.14H297.64l0.38 0.13 0.29 0.26 0.23 0.48v9.68l-1 0.5zM790.7 680.18l-0.33-0.58-0.47-0.5-0.55-0.4-0.63-0.31-4.11-1.19-3.11-1.13-3.63-1.67 0.09 0.23-4.25-3-2.09-1.85-1.85-2.06-1.34-1.89 0.29-1 0.27-1.2h11.61c-0.68 1-1.34 2-2 2.93-0.55 0.72-1.12 1.43-1.62 2.15l-0.27 0.62-0.17 0.64v0.67l0.1 0.63 1.28 3.16 3-0.9 0.59-0.27 0.56-0.4 0.55-0.49 1.77-2.27 1.47-2.28 1.18-2.37 0.94-2.44 0.25-1.23 0.05-1.14-0.21-1.06-0.52-0.91-0.83-0.7-1-0.44-1.25-0.25-1.45-0.08H758.4l0.24-3.73-1.69-2-0.88-0.25-0.65-0.07-0.67 0.06-0.61 0.22-0.55 0.34-0.49 0.47-0.4 0.55-0.94 2-0.7 1.3-1.63 2.55-2.17 2.72-1.87 2.23-0.12-2.73-1.87-1.86-10.4-3.68-1.72-0.54-0.73-0.11h-0.68l-0.65 0.11-0.6 0.27-0.53 0.36-0.45 0.48-0.37 0.59-0.25 0.67-0.17 0.7v0.72l0.15 0.65 0.31 0.59 0.43 0.48 0.51 0.41 0.58 0.32 1.22 0.47 1 0.27c1.07 0.31 2.14 0.64 3.18 1l3.17 1.13c1.16 0.45 2.3 0.93 3.42 1.42l0.68 0.2 0.68 0.1 1.76-0.05v1.11l0.14 0.65 0.62 1.39-3 1.25-3.32 2.04-3.31 2-3.49 1.83c-1.44 0.67-2.9 1.34-4.33 2.06l-0.58 0.42-0.49 0.49-0.35 0.58-0.21 0.63-0.05 0.68 0.11 0.69 0.26 0.67 0.38 0.65 0.51 0.54 0.58 0.38 0.66 0.25 0.68 0.08h0.71l0.7-0.13 0.73-0.21 4.28-2c1.56-0.82 3.15-1.63 4.67-2.48L742 678l-0.06 2.44 0.14 0.76 0.88 1.72h-4.52l-1 0.1-1 0.31-0.92 0.5-0.79 0.65-0.67 0.78-0.49 0.92-0.32 1-0.1 1V705l0.06 0.64 0.2 0.67 0.29 0.54 2.75 2.68-6.52 0.48-0.75 0.13-0.67 0.24-0.61 0.33-0.5 0.42-0.42 0.51-0.27 0.62-0.14 0.65v0.79l0.22 0.73 0.31 0.61 0.41 0.51 0.52 0.43 0.58 0.29 0.66 0.2 0.69 0.08h0.75l6.61-0.49 5.85-1.19 5.07-1.9 4.3-2.58 3.48-3.32 2.67-4 1.81-4.68 1-5.31 0.06-0.78v-0.73l-0.49-2h14.32l0.31 0.1 0.23 0.15 0.29 0.38a3 3 0 0 1 0.13 0.57v12.71l0.22 2.3-3.53-1.47c-1.74-0.67-3.48-1.29-5.22-1.86l-1-0.33-2.46-0.67-0.71-0.11h-0.67l-0.66 0.09a3.86 3.86 0 0 0-1.11 0.49l-1.35 1.15-0.07 1.83 0.12 0.62 0.24 0.6 0.36 0.51 0.47 0.45 0.55 0.35 0.63 0.3 2.93 0.87 2.82 0.94 2.78 1 2.75 1.11 2.71 1.21 2.67 1.31 2.64 1.39 2.74 1.56 2.64 0.55 2.21-1.81v-2.81l-1.91-2-7.14-3.72 1.79-1 0.52-0.43 0.42-0.54 0.32-0.59 0.2-0.67 0.07-0.64v-15.28l-0.11-1-0.31-1-1.52-2.8 5.39 1.36 2.73-0.17 1.6-2.09v-0.94l-0.09-0.69z m-43-7.36l-0.91-3.22 1.31-0.32a5.6 5.6 0 0 0 1.78-1c0.61-0.54 1.21-1.1 1.78-1.72 0.88-0.94 1.72-2 2.57-3h7.4l-0.42 1.53-1.07 2.29-1.51 2.06-1.89 1.86-2.37 1.7-2.79 1.49-3.24 1.33-3.48 1.07z m6.89 18.68l-0.21 0.78-0.64 4.13-1.3 3.47-2 2.93-2.65 2.44-3.36 1.95-7.3 2.55 2.32-2.84 0.33-0.59 0.19-0.65 0.07-0.65v-14.45l0.1-0.35 0.17-0.23 0.22-0.22 0.55-0.17h14.3z m-4.74-8.62l6.15-2.66 2.56-1.4 2.28-1.62 2-1.81 2.55-3.08 1 1.29 2.12 2.27 2.37 2 2.65 1.82 5.79 3.16zM672.54 673.35h-0.01 0.01zM715.2 711.67l-0.26-0.65-0.37-0.55-0.57-0.47-0.57-0.38-0.67-0.29-0.73-0.19-2.34-0.38-2.23-0.46-2.21-0.59-2.16-0.67-2.15-0.8-2.1-0.89-3.07-1.5 2.59-2.54 1.62-1.83 1.54-1.93 1.44-2.06 1.37-2.17 1.26-2.28 1.19-2.39 0.67-1.73 0.35-1.64v-0.77l-0.07-0.74-0.17-0.72-0.27-0.69-0.42-0.62-0.47-0.51-0.56-0.46-3.84-2.25h8.53l0.69-0.09 0.65-0.18 0.58-0.28 0.52-0.38 0.43-0.5 0.32-0.58 0.19-0.64 0.06-0.71-0.06-0.69-0.15-0.62-0.29-0.59-0.4-0.5-0.54-0.38-0.62-0.28-0.69-0.15h-6.58l-1.37-0.32v-11.69l-0.08-1.14-0.25-1-0.44-0.93-0.63-0.77-0.83-0.6-0.95-0.4-1.09-0.23-1.17-0.07h-15.51l-1.32 0.07-1.18 0.23-1 0.38-0.86 0.61-0.68 0.78-0.44 1-0.25 1.08-0.08 1.21v4.74l-0.06 1.62-0.27 1.47-0.48 1.37-0.7 1.24-2.44 3.24v-0.5l-3.36 2.25-0.52 0.52-0.43 0.57-0.29 0.64-0.14 0.68 0.06 0.73 0.23 0.71 0.4 0.68 1.09 1.28-1.87 1.05c-1 0.65-2 1.37-3 2.08v-11.18h7.8l-0.19-4.53-0.18-0.48-0.31-0.49-0.42-0.42-0.49-0.29-0.56-0.19h-5.66V655.7l-0.06-0.58-0.17-0.56-0.3-0.51-0.4-0.41-0.5-0.32-0.55-0.22-0.59-0.14h-1.36l-0.58 0.13-0.57 0.23-0.46 0.34-0.4 0.4-0.3 0.52-0.17 0.55v11.75H652.34l-0.57 0.17-0.51 0.28-0.41 0.41-0.35 0.5-0.21 0.57-0.13 0.59v1.34l0.13 0.58 0.21 0.55 0.33 0.5 0.41 0.4 0.52 0.31 0.56 0.16 0.58 0.06h5.42v14.59l-2.07 1-2.66 1.37c-0.85 0.44-1.74 0.87-2.59 1.4l-0.43 0.4-0.34 0.46-0.22 0.54-0.13 0.55v0.61l0.09 0.6 0.19 0.67 0.32 0.6 0.37 0.5 0.42 0.41 0.48 0.32 0.53 0.22 0.56 0.1h0.57l0.6-0.09c0.82-0.38 1.62-0.76 2.4-1.16l1.93-1v13.82l-2.68-1-2.92-0.05-1.62 2.37v0.9l0.09 0.68 0.19 0.64 0.31 0.61 0.42 0.56 0.54 0.5 0.64 0.4 0.74 0.35 2.42 0.63 2.11 0.29 1.85-0.08 1.61-0.47 1.28-0.92 1.59-2.31 1.18 2 0.45 0.52 0.52 0.42 0.61 0.32 0.66 0.2 0.71 0.08h0.75l0.81-0.1 2.77-0.72 2.66-0.78 2.57-0.86 2.48-0.91 2.39-1 2.31-1.09 3.91-2.08 1.67 1 2.32 1.26 2.5 1.14 2.68 1.05 2.85 0.95 3 0.85 3.2 0.76 3.44 0.66h0.76l0.71-0.05 0.65-0.18 0.61-0.32 0.51-0.44 0.4-0.54 0.28-0.63 0.19-0.75v-0.83z m-37.41-33.87l1.59-1.67 1.29-1.8 1-1.93 0.71-2 0.41-2.15 0.14-2.26v-4.73h13.73V672l0.14 1.76 0.32 1.49 0.23 0.6 0.29 0.55 0.35 0.45 0.39 0.4 0.49 0.36 4.13 2.09h-27.5z m1.43 27.69l-2 0.8-4.29 1.46-4.84 1.35-0.73 0.29-0.62 0.38-2 1.74v-19.37c2-1.16 4-2.34 5.9-3.53l0.65-0.4L674 685l-1 4.1v0.71l0.14 0.75 0.28 0.73 0.41 0.74 2.57 3.56 2.57 3.19c0.84 1 1.68 1.88 2.57 2.81l1.86 1.9z m13.69-8.49l-3 2.54-1.79-1.54-1.12-1.13c-0.7-0.72-1.4-1.47-2.09-2.21l-1.27-1.52-2.41-3.23-2.23-3.37h21.43l-1.22 2.46-1 1.67-1.12 1.62-1.24 1.59-1.42 1.55z" fill="#EA5504" p-id="4698"></path><path d="M758.63 703.06l-0.55 1.44 1.64-1.4 0.07-1.79-1.16 1.75zM507.56 707l-2.9-1.85-2.58-2-1.65-1.46c1.61-1.53 3.25-3 4.79-4.6 0.83-0.83 1.61-1.69 2.39-2.5l0.56-0.6 0.39-0.58 0.29-0.61 0.15-0.64v-0.65l-0.15-0.67-0.27-0.59-0.39-0.57-0.62-0.65-3.23-0.87 2.07-1.71 0.63-0.76 0.48-0.88 0.31-1 0.11-1v-22.38l-0.11-1-0.3-1-0.49-0.88-0.62-0.76-0.78-0.64-0.88-0.47-1-0.29-1-0.1H479.7l-1 0.1-1 0.29-0.89 0.47-0.76 0.64-0.62 0.74-1 2-1.43-0.71-0.61-0.19-0.63-0.08H463c0.12-0.68 0.26-1.39 0.42-2.08l0.05-0.28 0.06-0.67v-0.69l-0.16-0.65-0.28-0.58-0.41-0.52-0.52-0.42-0.6-0.33-0.72-0.26-0.84-0.07h-0.7l-0.66 0.16-0.59 0.28-0.53 0.41-0.42 0.53-0.34 0.6-0.23 0.67-0.75 3-0.83 2.8-1 2.68-1 2.58-1.16 2.48-1.26 2.38-1.39 2.26-1.5 2.23-0.4 0.7-0.29 0.71-0.16 0.73v0.72l0.14 0.7 0.31 0.64 0.44 0.58 0.7 0.65 2.77 0.47 2.6-1.65 1.29-1.77h1.61v7.15h-6l-0.6 0.08-0.58 0.16-0.54 0.29-0.44 0.4-0.35 0.5-0.24 0.58-0.13 0.63v1.38l0.14 0.63 0.24 0.57 0.35 0.51 0.43 0.39 0.53 0.31 0.57 0.19 0.6 0.1h6v20.6l0.23 1.72 0.21 0.72 0.27 0.67 0.36 0.61 0.45 0.5 0.54 0.45 0.59 0.29 0.64 0.2 0.65 0.05h0.69l0.69-0.16 0.68-0.24 1.48-0.77 2.32-1.66 2.36-1.94c1.24-1.16 2.46-2.31 3.61-3.49l2.14-2.21v4.41l0.14 1.83 0.37 1.58 0.63 1.27 0.92 1 1.19 0.58 1.39 0.17 1.49-0.23 1.68-0.55 2.16-1.37 2.3-1.75c1.29-1.14 2.55-2.3 3.79-3.45l1.42-1.39 0.46-0.7 0.34-0.68 0.21-0.7 0.26-2.67 2.53 2.77 3.4 3 3.81 2.63 4.3 2.35 2.89 0.6 2.42-1.57 0.27-2.91-2-2.11z m-49-36.14l2.37-5.54h10.87a5.73 5.73 0 0 0 1.25-0.26l1.53-0.64v7.73l-1 2.13 1 2.15v9.63l-2-1.09-0.56-0.18-0.58-0.06h-8v-7.15h6.58l0.65-0.08 0.61-0.17 0.58-0.27 0.49-0.38 0.39-0.49 0.91-1.91-0.91-1.93-0.38-0.5-0.49-0.4-0.55-0.28-0.62-0.2-0.66-0.09z m16.08 32l-3.85-1.21-2.3 1.29c-1 1.06-1.95 2.16-3 3.22l-2.08 2.13v-16.86h8.05l0.58-0.1 0.57-0.21 2-1.24z m6.72-40.05l0.08-0.29 0.19-0.28 0.23-0.18 0.29-0.11 0.25-0.05h18l0.35 0.14 0.27 0.24 0.21 0.38V668.34H481.3z m0 12.22h19.93v5.5l-0.2 0.32-0.14 0.17-0.4 0.28H481.3z m7.78 27.32l-2.48 1.55-1.46 1.71c-0.36 0.35-0.73 0.72-1.11 1.11-0.88 0.83-1.82 1.72-2.72 2.58V688h4l1.1 3.86 1.72 4.23 2.14 3.9 2.6 3.64z m9.78-8.42l-0.6 0.62-1.95 1.87-1.6-3c-0.5-1.06-1-2.11-1.4-3.17l-0.8-2.32h11.88c-1.88 2.07-3.68 4.07-5.59 6.07zM777.86 674.4l-0.02-0.04-0.05 0.01 0.07 0.03zM623.48 682.67l-0.49-0.9-0.63-0.77-0.79-0.64-0.9-0.49-0.98-0.3-1.05-0.1-1.05 0.1-0.99 0.3-0.89 0.5-0.76 0.64-0.65 0.76-0.48 0.9-0.31 0.98-0.1 1.07 0.1 1.05 0.31 0.98 0.48 0.88 0.65 0.78 0.76 0.65 0.89 0.49 0.99 0.29 1.05 0.12 1.05-0.12 0.99-0.29 0.89-0.49 0.79-0.64 0.63-0.79 0.49-0.87 0.31-0.99 0.12-1.05-0.12-1.07-0.31-0.98zM524.71 673.47l0.61 0.68 2.56 0.93 2.34-1.22 2.78-3.41 2.6-3.6 2.52-3.96 2.55-4.37 0.4-2.8-1.86-2.33-2.82-0.16-1.99 2.01-2.02 3.66-2.21 3.48-2.48 3.38-2.77 3.32-0.41 0.55-0.32 0.62-0.2 0.65-0.03 0.68 0.1 0.65 0.27 0.65 0.38 0.59zM546.42 661.65l0.46 0.52 0.55 0.38 0.61 0.28 0.66 0.17 0.72 0.08h32.13l0.74-0.05 0.73-0.16 0.65-0.28 0.6-0.39 0.47-0.53 0.35-0.6 0.21-0.73 0.07-0.77-0.08-0.76-0.22-0.67-0.34-0.61-0.47-0.52-0.59-0.41-0.65-0.29-0.73-0.18-0.74-0.04h-32.12l-0.73 0.07-0.67 0.18-0.62 0.28-0.53 0.4-0.47 0.51-0.32 0.63-0.18 0.68-0.05 0.73 0.05 0.77 0.18 0.7 0.33 0.61zM536.7 669.78l-1.92 2.11-1.14 2.22-1.13 2.05-1.2 2-1.25 2-2.69 3.72-3 3.62-1.15 2.5 1.06 2.7 2.66 1 2.47-1.28 1.93-2.28v23.55l0.08 0.74 0.17 0.71 0.27 0.64 0.4 0.58 0.5 0.47 0.62 0.36 0.69 0.21 0.76 0.07 0.78-0.07 0.71-0.21 0.6-0.35 0.52-0.47 0.37-0.59 0.27-0.64 0.16-0.72 0.08-0.74v-33.27l1.89-3.23a10.05 10.05 0 0 0 1.31-5.24l-2-2.21zM588.16 673.6l-0.31-0.61-0.41-0.5-0.52-0.41-0.58-0.28-0.64-0.19-0.68-0.06h-38.28l-0.73 0.06-0.68 0.18-0.62 0.27-0.53 0.41-0.42 0.5-0.32 0.6-0.25 1 0.08 1.16 0.17 0.71 0.32 0.63 0.45 0.54 0.52 0.38 0.61 0.29 0.65 0.17 0.71 0.1h24.23v26.43l-0.05 1-0.13 0.8-0.21 0.68a3.71 3.71 0 0 1-0.5 0.74 6.06 6.06 0 0 1-0.47 0.45l-0.63 0.22-0.51 0.14-1 0.11c-0.61 0-1.22 0-1.82-0.09l-3-0.47-6.49-1.57a6.1 6.1 0 0 0-1-0.13h-0.35l-0.77 0.14-0.49 0.23-1.66 2 0.09 3.16 2.34 1.62 3.25 0.84 2.87 0.64 2.6 0.51 2.41 0.32 2.17 0.14h1.94l1.72-0.22 1.5-0.38 1.29-0.54 1.14-0.77 1-1 0.76-1.19 0.56-1.4 0.39-1.57 0.22-1.77 0.08-1.92v-27.18H585l0.66-0.09 0.63-0.17 0.58-0.28 0.53-0.38 0.42-0.51 0.31-0.61 0.17-0.7 0.07-0.76-0.07-0.74zM749.26 466.76c0 5 0.95 8.94 7.31 12.16 5.11 2.56 13.55 6.55 21.13 10.12 7.59-3.57 16-7.56 21.16-10.12 6.36-3.21 7.3-7.14 7.3-12.16v-5.44h-56.9z" fill="#EA5504" p-id="4699"></path><path d="M899.56 306.79H129a35.52 35.52 0 0 0-35.52 35.54v241.72A35.54 35.54 0 0 0 129 619.6h770.56a35.54 35.54 0 0 0 35.52-35.55V342.33a35.52 35.52 0 0 0-35.52-35.54z m-198.9 111.74A14.57 14.57 0 0 1 715.24 404h50.13v-6.84a2.83 2.83 0 0 1 2.82-2.84h19a2.82 2.82 0 0 1 2.82 2.84V404h50.15a14.56 14.56 0 0 1 14.56 14.56V428a2.83 2.83 0 0 1-2.82 2.83h-13.19a2.81 2.81 0 0 1-2.82-2.83v-8.25H719.54V428a2.82 2.82 0 0 1-2.83 2.83h-13.22a2.83 2.83 0 0 1-2.83-2.83zM335 483.25a16.61 16.61 0 0 1-16.62 16.58h-49.8v23.35a2.8 2.8 0 0 1-2.83 2.82h-20.19a2.8 2.8 0 0 1-2.82-2.82v-23.35H193a16.6 16.6 0 0 1-16.61-16.58v-54.2A16.62 16.62 0 0 1 193 412.44h49.78V397.6a2.82 2.82 0 0 1 2.82-2.84h20.18a2.82 2.82 0 0 1 2.83 2.84v14.84h49.77A16.63 16.63 0 0 1 335 429.05z m178.38 22.49a16.6 16.6 0 0 1-16.61 16.59H374.18a16.6 16.6 0 0 1-16.61-16.59v-90.11a16.6 16.6 0 0 1 16.61-16.58h122.56a16.59 16.59 0 0 1 16.61 16.58z m171.91-9.23a2.82 2.82 0 0 1-2.81 2.81h-62v23.85a2.81 2.81 0 0 1-2.84 2.82h-19a2.81 2.81 0 0 1-2.83-2.82v-23.84h-62a2.82 2.82 0 0 1-2.82-2.81v-12.67a2.82 2.82 0 0 1 2.82-2.81h62v-61.87h-57a2.84 2.84 0 0 1-2.84-2.85v-12a2.8 2.8 0 0 1 2.84-2.79H677.4a2.81 2.81 0 0 1 2.82 2.79v12a2.85 2.85 0 0 1-2.82 2.85h-57V481h62a2.82 2.82 0 0 1 2.81 2.81zM545 428.94h19.11a5.29 5.29 0 0 1 4.8 2.63l19 37.05a1.71 1.71 0 0 1-1.65 2.62h-19.11a5.34 5.34 0 0 1-4.81-2.62l-19-37.05a1.7 1.7 0 0 1 1.66-2.63z m127.89 2.63l-19 37.05a5.37 5.37 0 0 1-4.82 2.62h-19.1a1.7 1.7 0 0 1-1.65-2.62l19-37.05a5.28 5.28 0 0 1 4.79-2.63h19.13a1.71 1.71 0 0 1 1.62 2.63z m182.93 26.92a2.84 2.84 0 0 1-2.85 2.83h-24.4V469c0 8.92-4.07 17.35-15 22.66-4.14 2-9.28 4.5-14.74 7.12 9.72 3.95 18.3 5.78 27.36 5.78h23.05a2.88 2.88 0 0 1 2.89 2.88v12.12a2.9 2.9 0 0 1-2.89 2.9h-22.67A89 89 0 0 1 797 517c-3.81-1.41-11-4.59-19.33-8.36-8.28 3.77-15.49 7-19.31 8.36a89 89 0 0 1-29.54 5.43h-22.64a2.92 2.92 0 0 1-2.91-2.9v-12.14a2.9 2.9 0 0 1 2.91-2.88h23c9.09 0 17.66-1.83 27.37-5.78a3023.8 3023.8 0 0 1-14.75-7.12c-10.93-5.32-15-13.74-15-22.66v-7.63h-24.35a2.83 2.83 0 0 1-2.82-2.83v-12.27a2.83 2.83 0 0 1 2.82-2.83h24.39V433a2.92 2.92 0 0 1 2.9-2.91h16.61a2.92 2.92 0 0 1 2.91 2.91v10.41h56.89V433a2.92 2.92 0 0 1 2.91-2.91h16.59a2.9 2.9 0 0 1 2.91 2.91v10.41h24.36a2.85 2.85 0 0 1 2.85 2.83z" fill="#EA5504" p-id="4700"></path><path d="M379.73 504.72H491.2v-89.37H379.73z m11.39-25.54h33.43v-14.64H395.9v-13.87h28.64v-10.14h-33.42v-15.05h88.71v15.05h-33.47v10.13H475v13.87h-28.64v14.64H463v-6.54h16.82v21.57h-88.7z" fill="#EA5504" p-id="4701"></path><path d="M199.8 430.84h42.95v50.64H199.8zM268.58 430.84h42.93v50.64h-42.93z" fill="#EA5504" p-id="4702"></path><path d="M962 335.92l-0.95-6.24-1.55-6-2.11-5.77-2.65-5.49-3.14-5.17-3.6-4.88-4-4.45-4.46-4.06-4.84-3.61-5.18-3.14-5.52-2.66-5.78-2.12-6-1.54-6.23-1-6.16-0.31h-771l-6.17 0.31-6.23 1-6 1.54-5.77 2.12-5.49 2.64-5.19 3.14-4.98 3.63-4.45 4.05-4 4.44-3.62 4.85-3.14 5.17-2.64 5.49-2.15 5.79-1.55 6-1 6.25-0.3 6.17v355.25l0.3 6.16 1 6.25 1.55 6 2.11 5.77 2.67 5.5 3.14 5.19 3.62 4.81 4 4.47 4.46 4.07 4.83 3.61 5.18 3.14 5.5 2.64 5.77 2.12 6 1.55 6.23 0.95 6.17 0.32h771l6.16-0.32 6.23-0.95 6-1.55 5.79-2.12 5.49-2.64 5.18-3.14 4.83-3.61 4.47-4.05 4-4.47 3.61-4.83 3.14-5.19 2.65-5.49 2.11-5.77 1.55-6 0.95-6.23 0.32-6.17V342.1z m-9.19 361.17a53.29 53.29 0 0 1-53.29 53.28H129a53.29 53.29 0 0 1-53.28-53.28V342.33A53.28 53.28 0 0 1 129 289h770.55a53.28 53.28 0 0 1 53.29 53.3z" fill="#EA5504" p-id="4703"></path></svg>