<svg enable-background="new 0 0 807.87 504.57" height="250" viewBox="0 0 807.87 504.57" width="400" xmlns="http://www.w3.org/2000/svg"><g fill="#fff"><path d="m590.64 2.29c20.41-2.54 41.52-2.22 61.31 3.85 16.13 4.85 31.03 13.68 43.01 25.51 13.19 12.91 22.78 29.03 30.14 45.84 13.31 30.56 20.33 63.28 28.64 95.42 16 63.09 32.14 126.15 48.69 189.11 6.7 26.33 6.53 55.42-5.78 80.12-10.86 22.48-31.23 39.22-54 48.74-26.27 11.25-55.26 13.95-83.57 13.34-178.99 0-357.98 0-536.98 0-8.45-.05-16.91.1-25.36-.1-22.11-.76-44.44-7.49-61.97-21.28-16.18-12.57-27.49-31.11-31.49-51.19-4.41-21.3-1.08-43.66 7.13-63.64 8.15-19.66 16.26-39.34 24.38-59.02 12.72-30.26 24.59-61.23 43.24-88.48 14.12-21.04 31.76-40.03 53.15-53.84 11.21-7.3 23.35-13.1 35.91-17.69 108.17-39.68 216.34-79.34 324.51-119.03 32.09-12.08 64.88-23.3 99.04-27.66m-18.45 43.92c-20.59 4.69-40.66 11.4-60.44 18.74-83.19 30.76-166.52 61.14-249.88 91.43-27.12 9.73-54.16 19.67-81.21 29.59-19.36 7.2-37.14 18.67-51.48 33.56-22.96 23.56-36.65 54.05-49.02 84.06-9.33 22.1-18.36 44.32-27.53 66.48-3.62 8.95-7.83 17.76-9.66 27.31-2.96 14.06-1.54 29.57 6.41 41.83 7.47 11.84 20.31 19.45 33.77 22.52 11.41 2.86 23.25 2.08 34.89 2.18 14.02-.01 28.05.03 42.07-.02 107.44.02 214.89.06 322.33-.02 62.9.08 125.81.04 188.71.02 18.29-.26 36.83-2.72 53.87-9.63 12.84-5.22 24.85-13.52 32.39-25.34 7.71-11.84 10.07-26.43 8.91-40.33-.79-11.68-4.38-22.88-7.25-34.16-17.1-65.25-33.72-130.63-50.44-195.98-5.31-20.79-10.74-41.66-19.04-61.5-5.83-13.71-13.21-27.18-24.25-37.41-9.19-8.57-20.78-14.43-33.12-16.74-19.94-3.84-40.43-.91-60.03 3.41z"/><path d="m447.44 156.26c8.09-.23 16.18-.04 24.27-.11-.45 2.15-.89 4.31-1.34 6.47-.3 1.35-.59 2.71-.87 4.07 18.7.07 37.4-.13 56.1.1-.6 2.58-1.12 5.18-1.69 7.77-.44.88-.19 3.09-1.79 2.66-24.72.06-49.44-.05-74.15.05-20.6-.08-41.2-.02-61.8-.03.75-3.51 1.5-7.02 2.25-10.52 18.94-.07 37.89.03 56.83-.05.79-3.46 1.53-6.93 2.19-10.41z"/><path d="m543.25 157.58c6.97 0 13.94.01 20.91 0-1.66 5.64-1.22 12.62-6.03 16.77-5.42 4.12-12.66 2.98-19.01 3.16 1.37-6.65 2.74-13.29 4.13-19.93z"/><path d="m572.16 157.72c23.33 0 46.66.01 69.98 0 3.17.04 6.82.18 9.19 2.6 2.5 2.7 1.52 7.12-.59 9.76-4.11 4.44-8.66 8.48-12.65 13.03 5.45-.07 10.91-.03 16.36-.03-3.9 18.3-7.81 36.61-11.74 54.91-1.68 7.33-9.57 11.1-16.56 11.12-16.02.13-32.05-.03-48.08.08 3.27-16.32 6.91-32.57 10.29-48.86 12.54-.01 25.08-.1 37.61.05-2.39 10.57-4.36 21.24-7 31.75-4.96-.12-9.92-.09-14.87-.01 1.01-7.23 3.13-14.25 4.23-21.46-2.46.04-4.92.04-7.36.02-2.09 9.34-4.03 18.71-6.02 28.07 10.11-.01 20.22.05 30.33-.03 3.17-15.25 6.55-30.45 9.6-45.72-17.56.12-35.12-.05-52.67.09-3.83 18.67-8.03 37.26-11.81 55.94-5.64.26-11.28.08-16.91.1 4.63-21.98 9.39-43.94 13.88-65.94 6.59-.23 13.19-.1 19.79-.07-1.01-3.79-4.02-6.6-5.24-10.31 6.55.05 13.11-.06 19.66.07 1.92 3.44 3.94 6.82 5.94 10.21 1.94-.01 3.88-.04 5.83-.08 3.66-3.74 7.47-7.35 11.2-11.04.97-.8 1.52-1.92 1.5-3.19-18.71-.55-37.45-.07-56.17-.24.75-3.61 1.51-7.22 2.28-10.82z"/><path d="m411.43 185.71c8.33-.16 16.65-.04 24.98-.07-4.11 11.5-13.5 20.63-24.53 25.6 5.95.38 11.91 0 17.87.29 1.36 9.34 5.98 18.13 12.9 24.55 9.29-6.58 17.49-14.8 23.22-24.68 5.82.03 11.65 0 17.47.02-8.82-5.42-13.82-15.74-13.21-26.01 8.41-.14 16.82-.02 25.24-.06-.48 4.97.17 10.36 3.54 14.29 4.39 5.33 11.65 6.84 18.23 7.05-.76 3.48-1.5 6.97-2.28 10.44-8.26.1-16.65-.01-24.59-2.57-7.97 12.92-18.93 23.88-31.7 32.07 14.97 6.96 31.78 8.37 48.08 8.11-.82 3.5-1.63 7-2.44 10.51-22.24.25-45.35.32-66.13-8.73-22.51 8.38-46.84 9.25-70.59 8.67.73-3.48 1.45-6.95 2.1-10.43 17.79.4 35.81-1.66 52.5-8.09-9.44-8.44-15.78-19.97-18.22-32.37-3.29.82-6.65 1.39-9.93 2.29-5.44.25-10.87.67-16.32.51.79-3.72 1.57-7.45 2.46-11.15 13.31.15 25.49-8.57 31.35-20.24z"/><path d="m528.34 185.18c5.23-.23 10.46-.09 15.7-.11 3.62.08 7.63.44 10.45 2.98 2.53 2.39 2.58 6.22 1.91 9.4-3.29 15.3-6.51 30.6-9.8 45.9-.57 2.76-1.14 6.29 1.23 8.4 2.61 1.99 6.11 1.9 9.24 2.09 31.19.09 62.38-.11 93.57.09-.81 3.48-1.55 6.97-2.3 10.46-31.4 0-62.8 0-94.19 0-6.72-.09-13.59.43-20.14-1.37-3.38-.92-6.7-2.93-8.19-6.21-1.95-4.22-1.33-9.04-.44-13.44 3.07-14.57 6.17-29.13 9.23-43.7.11-1.17.91-3.51-.95-3.66-2.48-.29-4.98-.09-7.45-.09.66-3.59 1.47-7.15 2.13-10.74z"/><path d="m422.64 299.56c.72-3.71 1.48-7.42 2.3-11.11 14.36.02 28.72.02 43.07 0 4.12 0 8.66.35 11.92 3.19 4.37 3.62 2.68 9.73 1.56 14.45-5.39 25.41-10.79 50.83-16.13 76.26 15.72-4.75 29.69-16.48 34.83-32.38-7.95.03-15.9 0-23.85.02 1.02-3.62 1.05-7.68 2.75-11.03 7.89-.28 15.79.07 23.68-.15 1.21-5.96 2.51-11.89 3.8-17.83-7.74-.11-15.49-.04-23.24-.03.68-3.66 1.44-7.3 2.35-10.9 4.06.07 8.12.05 12.19.07-4.35-6.22-6.36-13.79-6.15-21.33 6.44-.1 12.88 0 19.32-.08-.68 7.3.26 14.78 3.65 21.35 3.01.05 6.03.05 9.06.03 5.77-6.06 10.21-13.35 12.72-21.34 6.4 0 12.81-.03 19.22.01-3.08 8.26-8.65 15.21-14.86 21.33 5.01.04 10.03 0 15.05.01-.76 3.62-1.56 7.25-2.43 10.85-8.68-.06-17.35.02-26.02-.05-1.37 5.97-2.6 11.98-3.87 17.97 8.49-.01 16.99.03 25.48-.02-.8 3.73-1.65 7.45-2.57 11.16-8.43-.07-16.85.01-25.28-.05-.45 7.93.89 16.23 5.37 22.94 3.46 5.37 8.74 9.36 14.63 11.74-.83 3.94-1.67 7.88-2.52 11.83-13.24-3.47-25.13-12.42-31.13-24.85-16.05 17.91-41.16 25.33-64.65 24.15.44-2.29.89-4.57 1.37-6.84-14.01 2.39-28 4.9-42 7.33.89-4.35 1.8-8.69 2.66-13.04 3.28-.61 6.56-1.2 9.83-1.83 1.98-9.86 4.19-19.67 6.2-29.53 3.39-15.52 6.56-31.09 9.97-46.61 6.24.02 12.48.01 18.72.02-1.02 4.98-2.08 9.95-3.16 14.92 4.13.03 8.27.03 12.41.03 1.19-5.62 2.44-11.23 3.59-16.85.29-1.32.71-3.88-1.44-3.67-12.79-.34-25.6-.03-38.4-.14m21.52 31.51c-1.14 5.65-2.39 11.27-3.55 16.92 4.14-.01 8.28.03 12.43-.04 1.13-5.65 2.41-11.27 3.54-16.92-4.14.01-8.28-.02-12.42.04m-5.95 27.93c-1.17 6.36-2.83 12.62-3.8 19.02 4.24-.77 8.49-1.46 12.72-2.26 1.13-5.62 2.39-11.21 3.52-16.82-4.15.02-8.3-.03-12.44.06z"/><path d="m564.37 309.99c14.27.09 28.49-7.89 34.69-20.94 24.63-.04 49.26-.02 73.89-.01.68 5.94 3.76 11.56 8.52 15.21 5.36 4.23 12.27 5.78 18.95 6.23-.67 3.43-1.38 6.86-2.1 10.28-11.32.23-23.13-.81-33.26-6.28-6-3.21-11.02-8.24-13.97-14.39-11.04-.26-22.09.04-33.13-.16-13.46 16.24-35.76 21.01-55.91 20.86.74-3.61 1.46-7.23 2.32-10.8z"/><path d="m210.49 291.04c9.76-.88 19.68-.41 29.48-.28 4.29 1.5 1.84 8.04-1.98 8.51-8.64.43-17.31-.06-25.96.22-2.73.08-4.99 2.41-5.46 5.02-1.22 5.67-2.48 11.34-3.65 17.02-.83 2.14.94 4.7 3.25 4.63 8.6.23 17.22-.23 25.81.2 4.62 1.71 1.22 8.97-2.95 8.75-8.3.14-16.62.04-24.93.05-4.06.22-8.03-2.17-9.67-5.89-1.97-4.1-.19-8.57.6-12.71 1.23-5.02 1.86-10.19 3.54-15.08 2.18-4.97 6.7-8.94 11.92-10.44z"/><path d="m247.23 294.64c.71-3.84 8.1-5.9 8.92-1.2-.46 4.43-1.77 8.72-2.56 13.1 8.04-.04 16.08.1 24.12-.09.95-4.18 1.41-8.5 2.86-12.55 1.29-3.28 7.88-4.87 8.62-.49-.95 6.86-2.81 13.56-4.09 20.37-1.31 5.72-2.32 11.53-3.73 17.23-.74 3.74-7 6.07-8.95 2.16-.12-2.46.6-4.86 1.08-7.23.82-3.47 1.56-6.96 2.24-10.45-8.04.11-16.07-.1-24.1.12-1.08 5.14-2.02 10.32-3.31 15.42-.82 3.06-4.5 5.05-7.47 3.79-2.12-.92-1.5-3.43-1.16-5.19 2.57-11.65 4.81-23.38 7.53-34.99z"/><path d="m296.86 294c1.32-3.55 7.6-4.85 8.77-.5-2.65 12.29-5.18 24.62-7.86 36.91-.47 3.47-4.69 5.91-7.86 4.26-1.54-.75-1.21-2.74-.96-4.08 1.73-8.58 3.67-17.12 5.39-25.7.87-3.62 1.37-7.35 2.52-10.89z"/><path d="m323.59 291.19c6.78-.95 13.71-.27 20.55-.42 6.02-.24 11.23 5.72 10.1 11.67-1.93 9.71-3.97 19.41-6.22 29.05-.85 3.66-8 5.61-8.76 1.06 1.56-9.76 4.2-19.32 5.93-29.05.46-1.79-1.13-3.69-2.94-3.71-5.39-.21-10.8-.04-16.2-.08-2.97-.3-6.1 1.73-6.6 4.75-1.96 8.95-3.63 17.96-5.69 26.89-.81 3.81-7.66 5.69-8.91 1.28 1.35-9.19 3.8-18.2 5.56-27.32 1.12-6.78 6.68-12.28 13.18-14.12z"/><path d="m361.17 298.35c-1.77-2.94.65-7.2 3.99-7.49 4.67-.33 9.37-.03 14.05-.13 5.19.12 10.4-.23 15.58.18 5.39.61 9.42 6.25 8.43 11.56-1.02 6.1-2.68 12.09-3.73 18.19-1.46 8.08-9.05 14.82-17.36 14.66-6.03-.04-12.05.08-18.08-.06-4.8-.02-9.03-3.97-9.73-8.65-1.05-8.97 6.6-17.96 15.72-18.02 4.57.01 9.22-.46 13.74.32 3.4 2.1 1.16 8.13-2.62 8.31-4.64.52-9.34-.27-13.98.38-3.89.7-5.44 7.48-1.03 8.58 5.99.36 12.01.11 18.01.14 2.79.2 5.36-1.94 6.07-4.57 1.11-4.17 1.72-8.45 2.68-12.65.37-2.46 1.51-4.97.97-7.47-1.36-3.07-5.3-1.8-7.91-2.07-6.63.02-13.25-.01-19.87.03-1.66-.17-3.78.29-4.93-1.24z"/><path d="m574.38 322.97c37.14-.1 74.28-.03 111.42-.03-.82 3.54-1.62 7.09-2.42 10.64-37.21.05-74.42.02-111.64.02 1-3.48.95-7.48 2.64-10.63z"/><path d="m109.24 340.48c1.05-2.85 3.72-5.41 6.93-5.28 15.33-.08 30.67.01 46-.04 1.9-.04 4.23.07 5.3 1.94 2.33 4.23-1.61 9.95-6.28 9.99-5.77.18-11.54-.08-17.31.07-.92.81-.77 2.24-1.14 3.34-2.6 12.37-5.19 24.75-7.88 37.1-.99 4.44-5.88 7.72-10.36 6.41-2.35-.66-2.82-3.49-2.25-5.52 2.84-13.87 6.04-27.67 8.75-41.56-6.27.02-12.56.25-18.82-.08-2.89-.43-4-3.95-2.94-6.37z"/><path d="m570.34 342.83c7.53.07 15.06.02 22.59.02-2.78 13.36-5.77 26.68-8.48 40.05 22.32-.03 44.64-.04 66.96.01 1.95-9.32 4.17-18.59 5.7-27.99-11.84.09-23.69.03-35.53.04-.59 2.6-1.16 5.21-1.71 7.83 8.43-.01 16.86.06 25.29-.04-.42 3.88-1.48 7.65-2.26 11.47-15.38-.19-30.78.24-46.14-.22 2.38-10.35 4.45-20.77 6.73-31.14 25.86-.03 51.73.07 77.59-.05-1.58 9.27-3.84 18.42-5.69 27.64-1.22 4.97-1.5 10.39-4.57 14.68-4.26 6.47-12.16 9.67-19.71 9.56-30.64-.03-61.28.1-91.91-.06 3.74-17.26 7.34-34.55 11.14-51.8z"/><path d="m187.22 353.62c.67-3.26 5.25-5.39 7.93-3.13 1.24 1.02.59 2.72.47 4.07-1.76 8.68-3.81 17.3-5.51 25.98-.73 2.06.82 4.49 3.04 4.53 5.66.19 11.34.12 17 .04 2.7.03 5.11-2.14 5.59-4.75 2.04-8.76 3.66-17.61 5.72-26.36.65-3.3 4.9-5.74 7.86-3.71 1.74 1.18 1.03 3.52.75 5.23-1.7 8.05-3.52 16.07-5.1 24.14-1.13 6.21-5.85 10.96-11.38 13.59-7.06 1.38-14.3.51-21.44.74-4.07.27-8.18-1.8-10.06-5.48-1.96-3.4-.85-7.42-.09-10.99 1.83-7.94 3.29-15.98 5.22-23.9z"/><path d="m232.84 360.24c3.02-7.07 10.85-11.69 18.53-10.85 5.23.14 10.48-.23 15.7.2 5.59.48 9.58 6.38 8.48 11.78-1.75 9.4-3.89 18.73-5.89 28.07-.6 3.99-7.09 6.37-9.15 2.27 1.46-9.84 4.18-19.45 5.9-29.24.55-2-1.26-4.13-3.29-4.02-5.36-.17-10.73-.08-16.1-.04-2.79-.18-5.53 1.77-6.12 4.54-2.06 8.83-3.66 17.78-5.75 26.62-.6 3.81-6.31 5.98-8.77 2.64-.07-5.96 2.32-11.7 3.13-17.59 1.18-4.77 1.83-9.69 3.33-14.38z"/><path d="m287.55 350.08c2.34-1.29 6.39.48 5.23 3.56-2.42 11.97-5.01 23.93-7.58 35.88-.35 4.07-7.71 6.62-9.04 2.07 2.09-12.1 5.05-24.04 7.44-36.09.25-2.39 1.61-4.62 3.95-5.42z"/><path d="m312.3 349.81c6.93-.21 13.89-.17 20.82-.03 5.65.25 10.05 6.1 9.12 11.6-1.06 6.4-2.59 12.72-3.84 19.09-1.61 7.81-9.29 13.84-17.23 13.66-6.03-.03-12.05.07-18.06-.05-7.05.2-11.6-7.71-9.22-14.01 1.23-5.54 2.4-11.09 3.61-16.62 1.44-7.02 7.79-12.63 14.8-13.64m-6.02 13.6c-1.28 5.64-2.58 11.29-3.78 16.95-.77 1.91.43 4.44 2.6 4.57 6.66.33 13.34-.24 20 .32 1.85-1.13 3.99-2.45 4.16-4.87 1.24-5.94 2.55-11.88 3.67-17.85.71-2.32-1.55-4.52-3.84-4.13-5.68-.03-11.35-.06-17.03.01-2.88-.14-5.36 2.23-5.78 5z"/><path d="m358.56 350.09c4.74-1.26 9.71-.47 14.55-.68 4.32.18 9.23-.83 12.98 1.92 3.34 2.35 4.71 6.74 3.79 10.66-1.92 9.2-3.77 18.41-5.75 27.59-.51 4.08-7.3 6.18-9.04 1.94 1.67-9.72 4.05-19.32 5.84-29.03.58-2.26-1.66-4.42-3.88-4.09-5.33-.04-10.66-.05-15.99.01-2.85-.08-5.4 2.33-5.93 5.05-1.92 8.68-3.66 17.41-5.58 26.09-.53 2.87-3.71 4.8-6.52 4.21-1.42-.28-2.92-1.65-2.3-3.22 1.78-9.09 3.83-18.14 5.73-27.21 1.15-6.25 6.18-11.27 12.1-13.24z"/><path d="m152.41 362.95c5.46-1 11.14-.16 16.69-.46 2.13.17 5.2-.65 6.35 1.76 1.74 3.4-1.67 7.54-5.3 7.21-6.37-.03-12.75.23-19.1-.15-3.94-1.43-1.85-7.26 1.36-8.36z"/></g><path d="m572.19 46.21c19.6-4.32 40.09-7.25 60.03-3.41 12.34 2.31 23.93 8.17 33.12 16.74-67.93 28.38-133.19 63.06-194.97 103.08.45-2.16.89-4.32 1.34-6.47-8.09.07-16.18-.12-24.27.11-.66 3.48-1.4 6.95-2.19 10.41-18.94.08-37.89-.02-56.83.05-.75 3.5-1.5 7.01-2.25 10.52 20.6.01 41.2-.05 61.8.03-3.62 3.12-7.75 5.52-11.56 8.37-8.33.03-16.65-.09-24.98.07-5.86 11.67-18.04 20.39-31.35 20.24-.89 3.7-1.67 7.43-2.46 11.15 5.45.16 10.88-.26 16.32-.51-14.74 11.93-29.6 23.73-43.74 36.39-11.98-14.19-23.67-28.65-36.33-42.25-9.94-11.05-20.02-21.97-30.45-32.56-7.11-7.33-14.57-14.33-21.55-21.79 83.36-30.29 166.69-60.67 249.88-91.43 19.78-7.34 39.85-14.05 60.44-18.74z" fill="#c7161d"/><path d="m470.37 162.62c61.78-40.02 127.04-74.7 194.97-103.08 11.04 10.23 18.42 23.7 24.25 37.41 8.3 19.84 13.73 40.71 19.04 61.5 16.72 65.35 33.34 130.73 50.44 195.98 2.87 11.28 6.46 22.48 7.25 34.16 1.16 13.9-1.2 28.49-8.91 40.33-7.54 11.82-19.55 20.12-32.39 25.34-17.04 6.91-35.58 9.37-53.87 9.63-62.9.02-125.81.06-188.71-.02-1.78-5.43-4.73-10.34-7.23-15.45-8.38-17.01-17.63-33.57-26.82-50.15-.97-2.14-3.58-1.99-5.5-2.5 23.49 1.18 48.6-6.24 64.65-24.15 6 12.43 17.89 21.38 31.13 24.85.85-3.95 1.69-7.89 2.52-11.83-5.89-2.38-11.17-6.37-14.63-11.74-4.48-6.71-5.82-15.01-5.37-22.94 8.43.06 16.85-.02 25.28.05.92-3.71 1.77-7.43 2.57-11.16-8.49.05-16.99.01-25.48.02 1.27-5.99 2.5-12 3.87-17.97 8.67.07 17.34-.01 26.02.05.87-3.6 1.67-7.23 2.43-10.85-5.02-.01-10.04.03-15.05-.01 6.21-6.12 11.78-13.07 14.86-21.33-6.41-.04-12.82-.01-19.22-.01-2.51 7.99-6.95 15.28-12.72 21.34-3.03.02-6.05.02-9.06-.03-3.39-6.57-4.33-14.05-3.65-21.35-6.44.08-12.88-.02-19.32.08-.21 7.54 1.8 15.11 6.15 21.33-4.07-.02-8.13 0-12.19-.07-.91 3.6-1.67 7.24-2.35 10.9 7.75-.01 15.5-.08 23.24.03-1.29 5.94-2.59 11.87-3.8 17.83-7.89.22-15.79-.13-23.68.15-1.7 3.35-1.73 7.41-2.75 11.03 7.95-.02 15.9.01 23.85-.02-5.14 15.9-19.11 27.63-34.83 32.38 5.34-25.43 10.74-50.85 16.13-76.26 1.12-4.72 2.81-10.83-1.56-14.45-3.26-2.84-7.8-3.19-11.92-3.19-14.35.02-28.71.02-43.07 0-.82 3.69-1.58 7.4-2.3 11.11 12.8.11 25.61-.2 38.4.14 2.15-.21 1.73 2.35 1.44 3.67-1.15 5.62-2.4 11.23-3.59 16.85-4.14 0-8.28 0-12.41-.03 1.08-4.97 2.14-9.94 3.16-14.92-6.24-.01-12.48 0-18.72-.02-3.41 15.52-6.58 31.09-9.97 46.61-4.49-6.02-8.04-12.66-12.37-18.79-2.99-4.17-5.19-8.96-9.09-12.41 1.05-6.1 2.71-12.09 3.73-18.19.99-5.31-3.04-10.95-8.43-11.56-5.18-.41-10.39-.06-15.58-.18-8.91-13.04-18.72-25.49-28.86-37.59l-.15-.16c14.14-12.66 29-24.46 43.74-36.39 3.28-.9 6.64-1.47 9.93-2.29 2.44 12.4 8.78 23.93 18.22 32.37-16.69 6.43-34.71 8.49-52.5 8.09-.65 3.48-1.37 6.95-2.1 10.43 23.75.58 48.08-.29 70.59-8.67 20.78 9.05 43.89 8.98 66.13 8.73.81-3.51 1.62-7.01 2.44-10.51-16.3.26-33.11-1.15-48.08-8.11 12.77-8.19 23.73-19.15 31.7-32.07 7.94 2.56 16.33 2.67 24.59 2.57.78-3.47 1.52-6.96 2.28-10.44-6.58-.21-13.84-1.72-18.23-7.05-3.37-3.93-4.02-9.32-3.54-14.29-8.42.04-16.83-.08-25.24.06-.61 10.27 4.39 20.59 13.21 26.01-5.82-.02-11.65.01-17.47-.02-5.73 9.88-13.93 18.1-23.22 24.68-6.92-6.42-11.54-15.21-12.9-24.55-5.96-.29-11.92.09-17.87-.29 11.03-4.97 20.42-14.1 24.53-25.6 3.81-2.85 7.94-5.25 11.56-8.37 24.71-.1 49.43.01 74.15-.05 1.6.43 1.35-1.78 1.79-2.66.57-2.59 1.09-5.19 1.69-7.77-18.7-.23-37.4-.03-56.1-.1.28-1.36.57-2.72.87-4.07m72.88-5.04c-1.39 6.64-2.76 13.28-4.13 19.93 6.35-.18 13.59.96 19.01-3.16 4.81-4.15 4.37-11.13 6.03-16.77-6.97.01-13.94 0-20.91 0m28.91.14c-.77 3.6-1.53 7.21-2.28 10.82 18.72.17 37.46-.31 56.17.24.02 1.27-.53 2.39-1.5 3.19-3.73 3.69-7.54 7.3-11.2 11.04-1.95.04-3.89.07-5.83.08-2-3.39-4.02-6.77-5.94-10.21-6.55-.13-13.11-.02-19.66-.07 1.22 3.71 4.23 6.52 5.24 10.31-6.6-.03-13.2-.16-19.79.07-4.49 22-9.25 43.96-13.88 65.94 5.63-.02 11.27.16 16.91-.1 3.78-18.68 7.98-37.27 11.81-55.94 17.55-.14 35.11.03 52.67-.09-3.05 15.27-6.43 30.47-9.6 45.72-10.11.08-20.22.02-30.33.03 1.99-9.36 3.93-18.73 6.02-28.07 2.44.02 4.9.02 7.36-.02-1.1 7.21-3.22 14.23-4.23 21.46 4.95-.08 9.91-.11 14.87.01 2.64-10.51 4.61-21.18 7-31.75-12.53-.15-25.07-.06-37.61-.05-3.38 16.29-7.02 32.54-10.29 48.86 16.03-.11 32.06.05 48.08-.08 6.99-.02 14.88-3.79 16.56-11.12 3.93-18.3 7.84-36.61 11.74-54.91-5.45 0-10.91-.04-16.36.03 3.99-4.55 8.54-8.59 12.65-13.03 2.11-2.64 3.09-7.06.59-9.76-2.37-2.42-6.02-2.56-9.19-2.6-23.32.01-46.65 0-69.98 0m-43.82 27.46c-.66 3.59-1.47 7.15-2.13 10.74 2.47 0 4.97-.2 7.45.09 1.86.15 1.06 2.49.95 3.66-3.06 14.57-6.16 29.13-9.23 43.7-.89 4.4-1.51 9.22.44 13.44 1.49 3.28 4.81 5.29 8.19 6.21 6.55 1.8 13.42 1.28 20.14 1.37h94.19c.75-3.49 1.49-6.98 2.3-10.46-31.19-.2-62.38 0-93.57-.09-3.13-.19-6.63-.1-9.24-2.09-2.37-2.11-1.8-5.64-1.23-8.4 3.29-15.3 6.51-30.6 9.8-45.9.67-3.18.62-7.01-1.91-9.4-2.82-2.54-6.83-2.9-10.45-2.98-5.24.02-10.47-.12-15.7.11m36.03 124.81c-.86 3.57-1.58 7.19-2.32 10.8 20.15.15 42.45-4.62 55.91-20.86 11.04.2 22.09-.1 33.13.16 2.95 6.15 7.97 11.18 13.97 14.39 10.13 5.47 21.94 6.51 33.26 6.28.72-3.42 1.43-6.85 2.1-10.28-6.68-.45-13.59-2-18.95-6.23-4.76-3.65-7.84-9.27-8.52-15.21-24.63-.01-49.26-.03-73.89.01-6.2 13.05-20.42 21.03-34.69 20.94m10.01 12.98c-1.69 3.15-1.64 7.15-2.64 10.63 37.22 0 74.43.03 111.64-.02.8-3.55 1.6-7.1 2.42-10.64-37.14 0-74.28-.07-111.42.03m-4.04 19.86c-3.8 17.25-7.4 34.54-11.14 51.8 30.63.16 61.27.03 91.91.06 7.55.11 15.45-3.09 19.71-9.56 3.07-4.29 3.35-9.71 4.57-14.68 1.85-9.22 4.11-18.37 5.69-27.64-25.86.12-51.73.02-77.59.05-2.28 10.37-4.35 20.79-6.73 31.14 15.36.46 30.76.03 46.14.22.78-3.82 1.84-7.59 2.26-11.47-8.43.1-16.86.03-25.29.04.55-2.62 1.12-5.23 1.71-7.83 11.84-.01 23.69.05 35.53-.04-1.53 9.4-3.75 18.67-5.7 27.99-22.32-.05-44.64-.04-66.96-.01 2.71-13.37 5.7-26.69 8.48-40.05-7.53 0-15.06.05-22.59-.02z" fill="#006463"/><path d="m385.97 299.56c2.61.27 6.55-1 7.91 2.07.54 2.5-.6 5.01-.97 7.47-2.77-2.84-4.8-6.24-6.94-9.54z" fill="#006463"/><path d="m444.16 331.07c4.14-.06 8.28-.03 12.42-.04-1.13 5.65-2.41 11.27-3.54 16.92-4.15.07-8.29.03-12.43.04 1.16-5.65 2.41-11.27 3.55-16.92z" fill="#006463"/><path d="m438.21 359c4.14-.09 8.29-.04 12.44-.06-1.13 5.61-2.39 11.2-3.52 16.82-4.23.8-8.48 1.49-12.72 2.26.97-6.4 2.63-12.66 3.8-19.02z" fill="#006463"/><path d="m180.66 185.97c27.05-9.92 54.09-19.86 81.21-29.59 6.98 7.46 14.44 14.46 21.55 21.79 10.43 10.59 20.51 21.51 30.45 32.56 12.66 13.6 24.35 28.06 36.33 42.25l.15.16c-15.32 12.98-30.02 26.68-44.72 40.36-1.17-4.35-7.45-3.05-8.77.5-1.15 3.54-1.65 7.27-2.52 10.89-3.25 2.78-6.13 5.95-9.24 8.89 1.28-6.81 3.14-13.51 4.09-20.37-.74-4.38-7.33-2.79-8.62.49-1.45 4.05-1.91 8.37-2.86 12.55-8.04.19-16.08.05-24.12.09.79-4.38 2.1-8.67 2.56-13.1-.82-4.7-8.21-2.64-8.92 1.2-2.72 11.61-4.96 23.34-7.53 34.99-.34 1.76-.96 4.27 1.16 5.19 2.97 1.26 6.65-.73 7.47-3.79 1.29-5.1 2.23-10.28 3.31-15.42 8.03-.22 16.06-.01 24.1-.12-.68 3.49-1.42 6.98-2.24 10.45-7.66 7.53-14.76 15.63-22.13 23.45-7.68-.84-15.51 3.78-18.53 10.85-1.5 4.69-2.15 9.61-3.33 14.38-1.6 1.6-3.18 3.23-4.54 5.04 1.58-8.07 3.4-16.09 5.1-24.14.28-1.71.99-4.05-.75-5.23-2.96-2.03-7.21.41-7.86 3.71-2.06 8.75-3.68 17.6-5.72 26.36-.48 2.61-2.89 4.78-5.59 4.75-5.66.08-11.34.15-17-.04-2.22-.04-3.77-2.47-3.04-4.53 1.7-8.68 3.75-17.3 5.51-25.98.12-1.35.77-3.05-.47-4.07-2.68-2.26-7.26-.13-7.93 3.13-1.93 7.92-3.39 15.96-5.22 23.9-.76 3.57-1.87 7.59.09 10.99 1.88 3.68 5.99 5.75 10.06 5.48 7.14-.23 14.38.64 21.44-.74-18.63 22.93-36.65 46.37-53.48 70.64-14.02.05-28.05.01-42.07.02-11.64-.1-23.48.68-34.89-2.18-13.46-3.07-26.3-10.68-33.77-22.52-7.95-12.26-9.37-27.77-6.41-41.83 1.83-9.55 6.04-18.36 9.66-27.31 9.17-22.16 18.2-44.38 27.53-66.48 12.37-30.01 26.06-60.5 49.02-84.06 14.34-14.89 32.12-26.36 51.48-33.56m29.83 105.07c-5.22 1.5-9.74 5.47-11.92 10.44-1.68 4.89-2.31 10.06-3.54 15.08-.79 4.14-2.57 8.61-.6 12.71 1.64 3.72 5.61 6.11 9.67 5.89 8.31-.01 16.63.09 24.93-.05 4.17.22 7.57-7.04 2.95-8.75-8.59-.43-17.21.03-25.81-.2-2.31.07-4.08-2.49-3.25-4.63 1.17-5.68 2.43-11.35 3.65-17.02.47-2.61 2.73-4.94 5.46-5.02 8.65-.28 17.32.21 25.96-.22 3.82-.47 6.27-7.01 1.98-8.51-9.8-.13-19.72-.6-29.48.28m-101.25 49.44c-1.06 2.42.05 5.94 2.94 6.37 6.26.33 12.55.1 18.82.08-2.71 13.89-5.91 27.69-8.75 41.56-.57 2.03-.1 4.86 2.25 5.52 4.48 1.31 9.37-1.97 10.36-6.41 2.69-12.35 5.28-24.73 7.88-37.1.37-1.1.22-2.53 1.14-3.34 5.77-.15 11.54.11 17.31-.07 4.67-.04 8.61-5.76 6.28-9.99-1.07-1.87-3.4-1.98-5.3-1.94-15.33.05-30.67-.04-46 .04-3.21-.13-5.88 2.43-6.93 5.28m43.17 22.47c-3.21 1.1-5.3 6.93-1.36 8.36 6.35.38 12.73.12 19.1.15 3.63.33 7.04-3.81 5.3-7.21-1.15-2.41-4.22-1.59-6.35-1.76-5.55.3-11.23-.54-16.69.46z" fill="#e5002d"/><path d="m305.63 293.5c14.7-13.68 29.4-27.38 44.72-40.36 10.14 12.1 19.95 24.55 28.86 37.59-4.68.1-9.38-.2-14.05.13-3.34.29-5.76 4.55-3.99 7.49 1.15 1.53 3.27 1.07 4.93 1.24 6.62-.04 13.24-.01 19.87-.03 2.14 3.3 4.17 6.7 6.94 9.54-.96 4.2-1.57 8.48-2.68 12.65-.71 2.63-3.28 4.77-6.07 4.57-6-.03-12.02.22-18.01-.14-4.41-1.1-2.86-7.88 1.03-8.58 4.64-.65 9.34.14 13.98-.38 3.78-.18 6.02-6.21 2.62-8.31-4.52-.78-9.17-.31-13.74-.32-9.12.06-16.77 9.05-15.72 18.02.7 4.68 4.93 8.63 9.73 8.65 6.03.14 12.05.02 18.08.06 8.31.16 15.9-6.58 17.36-14.66 3.9 3.45 6.1 8.24 9.09 12.41 4.33 6.13 7.88 12.77 12.37 18.79-2.01 9.86-4.22 19.67-6.2 29.53-3.27.63-6.55 1.22-9.83 1.83-.86 4.35-1.77 8.69-2.66 13.04 14-2.43 27.99-4.94 42-7.33-.48 2.27-.93 4.55-1.37 6.84 1.92.51 4.53.36 5.5 2.5 9.19 16.58 18.44 33.14 26.82 50.15 2.5 5.11 5.45 10.02 7.23 15.45-107.44.08-214.89.04-322.33.02 16.83-24.27 34.85-47.71 53.48-70.64 5.53-2.63 10.25-7.38 11.38-13.59 1.36-1.81 2.94-3.44 4.54-5.04-.81 5.89-3.2 11.63-3.13 17.59 2.46 3.34 8.17 1.17 8.77-2.64 2.09-8.84 3.69-17.79 5.75-26.62.59-2.77 3.33-4.72 6.12-4.54 5.37-.04 10.74-.13 16.1.04 2.03-.11 3.84 2.02 3.29 4.02-1.72 9.79-4.44 19.4-5.9 29.24 2.06 4.1 8.55 1.72 9.15-2.27 2-9.34 4.14-18.67 5.89-28.07 1.1-5.4-2.89-11.3-8.48-11.78-5.22-.43-10.47-.06-15.7-.2 7.37-7.82 14.47-15.92 22.13-23.45-.48 2.37-1.2 4.77-1.08 7.23 1.95 3.91 8.21 1.58 8.95-2.16 1.41-5.7 2.42-11.51 3.73-17.23 3.11-2.94 5.99-6.11 9.24-8.89-1.72 8.58-3.66 17.12-5.39 25.7-.25 1.34-.58 3.33.96 4.08 3.17 1.65 7.39-.79 7.86-4.26 2.68-12.29 5.21-24.62 7.86-36.91m17.96-2.31c-6.5 1.84-12.06 7.34-13.18 14.12-1.76 9.12-4.21 18.13-5.56 27.32 1.25 4.41 8.1 2.53 8.91-1.28 2.06-8.93 3.73-17.94 5.69-26.89.5-3.02 3.63-5.05 6.6-4.75 5.4.04 10.81-.13 16.2.08 1.81.02 3.4 1.92 2.94 3.71-1.73 9.73-4.37 19.29-5.93 29.05.76 4.55 7.91 2.6 8.76-1.06 2.25-9.64 4.29-19.34 6.22-29.05 1.13-5.95-4.08-11.91-10.1-11.67-6.84.15-13.77-.53-20.55.42m-36.04 58.89c-2.34.8-3.7 3.03-3.95 5.42-2.39 12.05-5.35 23.99-7.44 36.09 1.33 4.55 8.69 2 9.04-2.07 2.57-11.95 5.16-23.91 7.58-35.88 1.16-3.08-2.89-4.85-5.23-3.56m24.75-.27c-7.01 1.01-13.36 6.62-14.8 13.64-1.21 5.53-2.38 11.08-3.61 16.62-2.38 6.3 2.17 14.21 9.22 14.01 6.01.12 12.03.02 18.06.05 7.94.18 15.62-5.85 17.23-13.66 1.25-6.37 2.78-12.69 3.84-19.09.93-5.5-3.47-11.35-9.12-11.6-6.93-.14-13.89-.18-20.82.03m46.26.28c-5.92 1.97-10.95 6.99-12.1 13.24-1.9 9.07-3.95 18.12-5.73 27.21-.62 1.57.88 2.94 2.3 3.22 2.81.59 5.99-1.34 6.52-4.21 1.92-8.68 3.66-17.41 5.58-26.09.53-2.72 3.08-5.13 5.93-5.05 5.33-.06 10.66-.05 15.99-.01 2.22-.33 4.46 1.83 3.88 4.09-1.79 9.71-4.17 19.31-5.84 29.03 1.74 4.24 8.53 2.14 9.04-1.94 1.98-9.18 3.83-18.39 5.75-27.59.92-3.92-.45-8.31-3.79-10.66-3.75-2.75-8.66-1.74-12.98-1.92-4.84.21-9.81-.58-14.55.68z" fill="#008476"/><path d="m306.28 363.41c.42-2.77 2.9-5.14 5.78-5 5.68-.07 11.35-.04 17.03-.01 2.29-.39 4.55 1.81 3.84 4.13-1.12 5.97-2.43 11.91-3.67 17.85-.17 2.42-2.31 3.74-4.16 4.87-6.66-.56-13.34.01-20-.32-2.17-.13-3.37-2.66-2.6-4.57 1.2-5.66 2.5-11.31 3.78-16.95z" fill="#008476"/></svg>