<svg width="781" height="716" viewBox="0 0 781 716" fill="none" xmlns="http://www.w3.org/2000/svg">
<path d="M678.274 78H247.366C183.903 78 132.457 128.141 132.457 189.989V329.971C132.457 337.702 138.886 343.968 146.819 343.968H261.728C269.661 343.968 276.09 337.702 276.09 329.971V245.68C276.255 183.971 327.643 133.995 390.995 133.995H434.085C442.027 133.995 448.447 140.264 448.447 147.991V259.976C448.447 321.824 397.001 371.961 333.538 371.961H75C75 402.885 100.725 427.955 132.457 427.955V525.943C132.457 587.792 183.903 637.928 247.366 637.928H477.184C508.916 637.928 534.641 612.858 534.641 581.934V553.936C534.641 538.474 521.779 525.939 505.913 525.939H405.366C397.433 525.939 391.004 532.205 391.004 539.936V553.932C391.004 569.394 378.141 581.929 362.275 581.929H304.818C288.953 581.929 276.09 569.394 276.09 553.932V441.947C276.09 434.216 282.523 427.951 290.452 427.951H534.632C629.831 427.951 706.998 352.748 706.998 259.971V105.997C706.998 90.5353 694.149 78 678.274 78Z" fill="#514ED1"/>
</svg>
