<svg width="40" height="40" viewBox="0 0 40 40" fill="none" xmlns="http://www.w3.org/2000/svg">
<path d="M20 40C8.95399 40 0 31.046 0 20C0 8.95399 8.95399 0 20 0C31.046 0 40 8.95399 40 20C40 31.046 31.046 40 20 40Z" fill="#00CF9A"/>
<path d="M15.9898 29.6354H27.8431C28.6591 29.6354 29.3231 28.9713 29.3231 28.1553C29.3231 27.335 28.6591 26.6753 27.8431 26.6753H15.9898C15.1738 26.6753 14.5098 27.3394 14.5098 28.1553C14.5098 28.9713 15.1695 29.6354 15.9898 29.6354Z" fill="white"/>
<path d="M17.1043 29.132L28.9272 15.7943C29.4697 15.1823 29.4133 14.2448 28.8013 13.7023C28.1893 13.1598 27.2518 13.2162 26.7093 13.8282L14.8864 27.1702C14.3438 27.7822 14.4003 28.7153 15.0122 29.2579C15.6242 29.8004 16.5617 29.744 17.1043 29.132Z" fill="white"/>
<path d="M23.9891 10.4038H12.1402C11.3199 10.4038 10.6602 11.0679 10.6602 11.8838C10.6602 12.6998 11.3242 13.3639 12.1402 13.3639H23.9848C24.8008 13.3639 25.4648 12.6998 25.4648 11.8838C25.4692 11.0679 24.8051 10.4038 23.9891 10.4038Z" fill="white"/>
<path d="M22.869 10.9029L11.0504 24.2405C10.5079 24.8525 10.5643 25.79 11.1763 26.3326C11.7883 26.8751 12.7258 26.8187 13.2683 26.2067L25.0869 12.869C25.6294 12.257 25.573 11.3195 24.961 10.777C24.349 10.2345 23.4115 10.2909 22.869 10.9029Z" fill="white"/>
</svg>
